<svg width="21" height="20" viewBox="0 0 21 20" fill="none" xmlns="http://www.w3.org/2000/svg">
<path d="M7.78094 11.3398V19.5098H0.241943V13.0601C0.241943 9.57006 0.658943 7.04998 1.49194 5.47998C2.58594 3.39998 4.31793 1.82977 6.68793 0.759766L8.40594 3.49023C6.97394 4.09023 5.91894 4.98994 5.24194 6.18994C4.56494 7.35994 4.18795 9.07984 4.10895 11.3398H7.78094ZM19.8909 11.3398V19.5098H12.3519V13.0601C12.3519 9.57006 12.7679 7.04998 13.6019 5.47998C14.6949 3.39998 16.4269 1.82977 18.7969 0.759766L20.5159 3.49023C19.0829 4.09023 18.0289 4.98994 17.3519 6.18994C16.6739 7.35994 16.2969 9.07984 16.2189 11.3398H19.8909Z" fill="#FFC000"/>
</svg>
